# xmcd
#
# Track frame offsets: 
#        150
#        11962
#        24658
#        35858
#        45724
#        58154
#        71267
#        86025
#        96350
#        107319
#        118619
#        130116
#        142707
#        154356
#        165205
#        178289
#        194399
#        207513
#        219844
#        235522
#
# Disc length: 3383 seconds
#
# Revision: 1
# Processed by: cddbd v1.5.2PL0 Copyright (c) Steve Scherf et al.
# Submitted via: ExactAudioCopyFreeDBPlugin 1.0
#
DISCID=150d3514
DTITLE=John Lee Hooker - The Masters
DYEAR=1997
DGENRE=Blues
TTITLE0=Boogie Chillun
TTITLE1=Hobo Blues
TTITLE2=Boom Boom
TTITLE3=Dimples
TTITLE4=Crawlin' Kingsnake
TTITLE5=I'm So Excited
TTITLE6=Moanin' Blues
TTITLE7=Big Legs, Tight Skirt
TTITLE8=Bottle Up And  Go
TTITLE9=This Is Hip
TTITLE10=Wheel And Deal
TTITLE11=Mamboa Chillun
TTITLE12=I Love You Honey
TTITLE13=No Shoes
TTITLE14=Birmingham Blues
TTITLE15=My First Wife Left Me
TTITLE16=I'm Going Upstairs
TTITLE17=Drugstore Woman
TTITLE18=One Way Ticket
TTITLE19=House Rent Boogie
EXTD=
EXTT0=
EXTT1=
EXTT2=
EXTT3=
EXTT4=
EXTT5=
EXTT6=
EXTT7=
EXTT8=
EXTT9=
EXTT10=
EXTT11=
EXTT12=
EXTT13=
EXTT14=
EXTT15=
EXTT16=
EXTT17=
EXTT18=
EXTT19=
PLAYORDER=
